<svg width="1362" height="270" viewBox="0 0 1362 270" fill="none" xmlns="http://www.w3.org/2000/svg">
<g clip-path="url(#clip0_42_295)">
<path d="M48.2701 225.532C40.7568 225.532 33.8994 224.718 27.847 223.091C22.1822 221.585 17.2926 218.934 13.2676 215.138C9.21274 211.342 5.96293 206.25 3.63738 199.984C1.25219 193.567 0.0297852 185.161 0.0297852 175.008V-0.000488281H41.7407V44.4673H84.8827V81.4032H41.7407V166.693C41.7407 181.697 49.5224 189.951 63.6844 189.951C70.8101 189.951 75.4016 189.59 84.197 186.999V217.759C79.2179 220.049 74.9246 221.284 69.7666 222.82C63.6248 224.628 56.3798 225.562 48.2701 225.562V225.532Z" fill="black"/>
<path d="M716.241 225.561C677.84 225.561 641.823 203.207 628.407 166.151C614.99 129.094 627.453 87.7596 657.715 64.2303C688.215 40.5503 732.401 37.8991 765.734 57.1805C799.067 76.4619 815.852 115.929 808.041 153.708C800.259 191.307 768 219.446 730.761 224.597C725.931 225.26 721.071 225.561 716.211 225.561H716.241ZM716.241 77.7574C693.194 77.7574 673.487 92.8812 666.629 115.266C659.772 137.65 665.437 162.686 682.938 177.9C700.439 193.114 725.633 194.832 744.714 183.022C763.796 171.212 772.084 146.327 768.387 124.183C764.094 98.4548 742.329 77.7574 716.241 77.7574V77.7574Z" fill="black"/>
<path d="M1199.75 44.4678V81.4037H1315.58L1212.57 270H1260.21L1362 77.7885V44.4678H1199.75Z" fill="black"/>
<path d="M909.442 44.4671H830.82V225.562H872.561V81.3127C872.561 81.3127 910.247 81.3127 910.635 81.3127C920.384 81.3127 929.15 84.7171 934.725 90.6521C946.323 103.034 946.323 131.083 946.323 152.985V225.532H988.064V123.882C988.064 54.7706 938.81 44.437 909.442 44.437V44.4671Z" fill="black"/>
<path d="M161.418 44.4678H114.698V225.532H156.438V81.3736H199.908L161.418 44.4678Z" fill="black"/>
<path d="M355.989 205.468C348.446 213.451 340.515 219.748 332.346 224.237C322.626 229.599 311.028 232.311 297.85 232.311C286.61 232.311 277.278 229.238 270.062 223.182C262.579 216.886 258.792 208.36 258.792 197.815V197.122C258.792 185.403 263.742 176.274 273.521 170.008C282.555 164.223 295.107 161.271 310.879 161.271H317.975L324.504 134.397L272.269 81.3736H372.834V44.4678H220.868V77.7885L277.904 132.53L277.486 132.59C269.705 133.915 262.012 136.024 254.618 138.886C247.522 141.658 241.053 145.545 235.447 150.425C229.962 155.215 225.46 161.331 222.09 168.592C218.751 175.822 217.052 184.8 217.052 195.285V195.977C217.052 206.763 218.93 216.705 222.687 225.593C226.414 234.45 231.81 242.313 238.727 248.941C245.644 255.569 254.231 260.781 264.278 264.426C274.445 268.132 285.984 270 298.536 270C319.287 270 337.116 266.264 351.487 258.883C364.456 252.225 375.667 243.669 384.879 233.365L355.959 205.468H355.989Z" fill="black"/>
<path d="M1034.72 205.468C1042.27 213.451 1050.2 219.748 1058.37 224.237C1068.09 229.599 1079.68 232.311 1092.86 232.311C1104.1 232.311 1113.43 229.238 1120.65 223.182C1128.13 216.886 1131.92 208.36 1131.92 197.815V197.122C1131.92 185.403 1126.97 176.274 1117.19 170.008C1108.16 164.223 1095.61 161.271 1079.83 161.271H1072.74L1066.21 134.397L1118.44 81.3736H1017.88V44.4678H1169.84V77.7885L1112.81 132.53L1113.23 132.59C1121.01 133.915 1128.7 136.024 1136.09 138.886C1143.19 141.658 1149.66 145.545 1155.26 150.425C1160.75 155.215 1165.25 161.331 1168.62 168.592C1171.96 175.822 1173.66 184.8 1173.66 195.285V195.977C1173.66 206.763 1171.78 216.705 1168.03 225.593C1164.3 234.45 1158.9 242.313 1151.99 248.941C1145.07 255.569 1136.48 260.781 1126.43 264.426C1116.27 268.132 1104.73 270 1092.18 270C1071.43 270 1053.6 266.264 1039.23 258.883C1026.26 252.225 1015.05 243.669 1005.83 233.365L1034.75 205.468H1034.72Z" fill="black"/>
<path d="M451.039 225.592C443.526 225.592 436.668 224.778 430.616 223.152C424.951 221.645 420.062 218.994 416.037 215.198C411.982 211.402 408.732 206.31 406.406 200.044C404.021 193.627 402.799 185.221 402.799 175.068V0.0595703H444.54V44.4972H487.682V81.4331H444.54V166.723C444.54 181.727 452.321 189.981 466.483 189.981C473.609 189.981 478.2 189.62 486.996 187.029V217.789C482.017 220.079 477.723 221.314 472.565 222.85C466.424 224.658 459.179 225.592 451.069 225.592H451.039Z" fill="black"/>
<path d="M565.706 225.592C558.193 225.592 551.335 224.778 545.283 223.152C539.618 221.645 534.729 218.994 530.704 215.198C526.649 211.402 523.399 206.31 521.073 200.044C518.688 193.627 517.466 185.221 517.466 175.068V0.0595703H559.207V44.4972H602.349V81.4331H559.207V166.723C559.207 181.727 566.988 189.981 581.15 189.981C588.276 189.981 592.867 189.62 601.663 187.029V217.789C596.684 220.079 592.39 221.314 587.232 222.85C581.091 224.658 573.846 225.592 565.736 225.592H565.706Z" fill="black"/>
</g>
<defs>
<clipPath id="clip0_42_295">
<rect width="1362" height="270" fill="white"/>
</clipPath>
</defs>
</svg>
