<?xml version="1.0" encoding="UTF-8"?>
<svg width="1362" height="270" fill="none" version="1.1" viewBox="0 0 1362 270" xmlns="http://www.w3.org/2000/svg">
 <g fill="#fff">
  <path d="m48.27 225.53c-7.5133 0-14.371-0.814-20.423-2.441-5.6648-1.506-10.554-4.157-14.579-7.953-4.0549-3.796-7.3047-8.888-9.6302-15.154-2.3852-6.417-3.6076-14.823-3.6076-24.976v-175.01h41.711v44.468h43.142v36.936h-43.142v85.29c0 15.004 7.7817 23.258 21.944 23.258 7.1257 0 11.717-0.361 20.513-2.952v30.76c-4.9791 2.29-9.2724 3.525-14.43 5.061-6.1418 1.808-13.387 2.742-21.496 2.742z" clip-path="url(#clipPath373)"/>
  <path d="m716.24 225.56c-38.401 0-74.418-22.354-87.834-59.41-13.417-37.057-0.954-78.391 29.308-101.92 30.5-23.68 74.686-26.331 108.02-7.0498s50.118 58.748 42.307 96.528c-7.782 37.599-40.041 65.738-77.28 70.889-4.83 0.663-9.69 0.964-14.55 0.964zm0-147.8c-23.047 0-42.754 15.124-49.612 37.509-6.857 22.384-1.192 47.42 16.309 62.634s42.695 16.932 61.776 5.122c19.082-11.81 27.37-36.695 23.673-58.839-4.293-25.728-26.058-46.426-52.146-46.426z" clip-path="url(#clipPath367)"/>
  <path d="m1199.8 44.468v36.936h115.83l-103.01 188.6h47.64l101.79-192.21v-33.321z" clip-path="url(#clipPath361)"/>
  <path d="m909.44 44.467h-78.622v181.09h41.741v-144.25h38.074c9.749 0 18.515 3.4044 24.09 9.3394 11.598 12.382 11.598 40.431 11.598 62.333v72.547h41.741v-101.65c0-69.111-49.254-79.445-78.622-79.445z" clip-path="url(#clipPath355)"/>
  <path d="m161.42 44.468h-46.72v181.06h41.74v-144.16h43.47z" clip-path="url(#clipPath349)"/>
  <path d="m355.99 205.47c-7.543 7.983-15.474 14.28-23.643 18.769-9.72 5.362-21.318 8.074-34.496 8.074-11.24 0-20.572-3.073-27.788-9.129-7.483-6.296-11.27-14.822-11.27-25.367v-0.693c0-11.719 4.95-20.848 14.729-27.114 9.034-5.785 21.586-8.737 37.358-8.737h7.096l6.529-26.874-52.235-53.023h100.56v-36.906h-151.97v33.321l57.036 54.742-0.418 0.06c-7.781 1.325-15.474 3.434-22.868 6.296-7.096 2.772-13.565 6.659-19.171 11.539-5.485 4.79-9.987 10.906-13.357 18.167-3.339 7.23-5.038 16.208-5.038 26.693v0.692c0 10.786 1.878 20.728 5.635 29.616 3.727 8.857 9.123 16.72 16.04 23.348s15.504 11.84 25.551 15.485c10.167 3.706 21.706 5.574 34.258 5.574 20.751 0 38.58-3.736 52.951-11.117 12.969-6.658 24.18-15.214 33.392-25.518l-28.92-27.897z" clip-path="url(#clipPath343)"/>
  <path d="m1034.7 205.47c7.55 7.983 15.48 14.28 23.65 18.769 9.72 5.362 21.31 8.074 34.49 8.074 11.24 0 20.57-3.073 27.79-9.129 7.48-6.296 11.27-14.822 11.27-25.367v-0.693c0-11.719-4.95-20.848-14.73-27.114-9.03-5.785-21.58-8.737-37.36-8.737h-7.09l-6.53-26.874 52.23-53.023h-100.56v-36.906h151.96v33.321l-57.03 54.742 0.42 0.06c7.78 1.325 15.47 3.434 22.86 6.296 7.1 2.772 13.57 6.659 19.17 11.539 5.49 4.79 9.99 10.906 13.36 18.167 3.34 7.23 5.04 16.208 5.04 26.693v0.692c0 10.786-1.88 20.728-5.63 29.616-3.73 8.857-9.13 16.72-16.04 23.348-6.92 6.628-15.51 11.84-25.56 15.485-10.16 3.706-21.7 5.574-34.25 5.574-20.75 0-38.58-3.736-52.95-11.117-12.97-6.658-24.18-15.214-33.4-25.518l28.92-27.897z" clip-path="url(#clipPath337)"/>
  <path d="m451.04 225.59c-7.513 0-14.371-0.814-20.423-2.44-5.665-1.507-10.554-4.158-14.579-7.954-4.055-3.796-7.305-8.888-9.631-15.154-2.385-6.417-3.607-14.823-3.607-24.976v-175.01h41.741v44.438h43.142v36.936h-43.142v85.29c0 15.004 7.781 23.258 21.943 23.258 7.126 0 11.717-0.361 20.513-2.952v30.76c-4.979 2.29-9.273 3.525-14.431 5.061-6.141 1.808-13.386 2.742-21.496 2.742z" clip-path="url(#clipPath331)"/>
  <path d="m565.71 225.59c-7.513 0-14.371-0.814-20.423-2.44-5.665-1.507-10.554-4.158-14.579-7.954-4.055-3.796-7.305-8.888-9.631-15.154-2.385-6.417-3.607-14.823-3.607-24.976v-175.01h41.741v44.438h43.142v36.936h-43.142v85.29c0 15.004 7.781 23.258 21.943 23.258 7.126 0 11.717-0.361 20.513-2.952v30.76c-4.979 2.29-9.273 3.525-14.431 5.061-6.141 1.808-13.386 2.742-21.496 2.742z" clip-path="url(#clipPath325)"/>
 </g>
 <defs>
  <clipPath id="clipPath325">
   <rect width="1362" height="270" fill="#fff"/>
  </clipPath>
  <clipPath id="clipPath331">
   <rect width="1362" height="270" fill="#fff"/>
  </clipPath>
  <clipPath id="clipPath337">
   <rect width="1362" height="270" fill="#fff"/>
  </clipPath>
  <clipPath id="clipPath343">
   <rect width="1362" height="270" fill="#fff"/>
  </clipPath>
  <clipPath id="clipPath349">
   <rect width="1362" height="270" fill="#fff"/>
  </clipPath>
  <clipPath id="clipPath355">
   <rect width="1362" height="270" fill="#fff"/>
  </clipPath>
  <clipPath id="clipPath361">
   <rect width="1362" height="270" fill="#fff"/>
  </clipPath>
  <clipPath id="clipPath367">
   <rect width="1362" height="270" fill="#fff"/>
  </clipPath>
  <clipPath id="clipPath373">
   <rect width="1362" height="270" fill="#fff"/>
  </clipPath>
 </defs>
</svg>
